inDegrees=yes
name=ik_S50_A12_T01
DataType=double
version=3
OpenSimVersion=4.3-2021-08-27-4bc7ad9
endheader
time	pelvis_tilt	pelvis_list	pelvis_rotation	pelvis_tx	pelvis_ty	pelvis_tz	hip_flexion_r	hip_adduction_r	hip_rotation_r	knee_angle_r	knee_angle_r_beta	ankle_angle_r	subtalar_angle_r	mtp_angle_r	hip_flexion_l	hip_adduction_l	hip_rotation_l	knee_angle_l	knee_angle_l_beta	ankle_angle_l	subtalar_angle_l	mtp_angle_l	lumbar_extension	lumbar_bending	lumbar_rotation	arm_flex_r	arm_add_r	arm_rot_r	elbow_flex_r	pro_sup_r	wrist_flex_r	wrist_dev_r	arm_flex_l	arm_add_l	arm_rot_l	elbow_flex_l	pro_sup_l	wrist_flex_l	wrist_dev_l
0	0	0	0	0	0.9399999999999999	0	0	0	0	0	0	0	0	0	0	0	0	0	0	0	0	0	0	0	0	0	0	0	0	89.99999999963507	0	0	0	0	0	0	89.99999999869995	0	0
0.02	-1.366841817442258	-0.2018228134573163	31.25778223555191	0	0.9399999999999999	0	1.752911560792308	-0.8255173989354394	-0.5893095884809064	2.728821366676295	0.04762691754727282	0	0	0	1.752911560792308	-0.8255173989354394	-0.5893095884809064	2.728821366676295	0.04762691754727282	0	0	0	-0.4221882558039846	-0.4883490764378746	13.87819673145263	8.724437977794375	-5.786950514229133	-5.215834677779336	7.340172022707291	130.277472398461	0	0	8.342383620336756	-7.886215128259566	-5.996596131494864	8.384931680240852	120.9407302822018	0	0
0.04	-1.375432618614247	-0.1989159319449138	31.47903270794926	0	0.9399999999999999	0	3.93424157243245	-1.889391755453285	-1.368422113138528	5.376162708214366	0.09383174038127588	0	0	0	3.93424157243245	-1.889391755453285	-1.368422113138528	5.376162708214366	0.09383174038127588	0	0	0	-0.4378690193260609	-0.4903741380545958	13.64384655827615	8.759039951203007	-5.792795088305597	-5.241716130387224	7.322611553073592	130.2931838839397	0	0	8.374191150975134	-7.874867157131153	-5.978180081243702	8.44628825262761	120.9429852166783	0	0
0.06	-1.366651285827268	-0.1991425013781456	31.59487698715999	0	0.9399999999999999	0	5.216418894533037	-2.417762161723001	-1.818516852484601	6.51342938172913	0.1136807883073119	0	0	0	5.216418894533037	-2.417762161723001	-1.818516852484601	6.51342938172913	0.1136807883073119	0	0	0	-0.4512368398980784	-0.4715010436306009	13.51768733314939	8.766416646055324	-5.795331767598126	-5.222227421872119	7.321292029918479	130.2606861508096	0	0	8.391976676405793	-7.867409273877707	-5.980716318133778	8.38321929529862	120.9377434476404	0	0
0.08	-1.365791390136576	-0.1931499699757936	31.74013603710437	0	0.9399999999999999	0	6.577162151284361	-2.976917900929593	-2.286206088818612	7.793013102689306	0.1360137372929874	0	0	0	6.577162151284361	-2.976917900929593	-2.286206088818612	7.793013102689306	0.1360137372929874	0	0	0	-0.4531790638880018	-0.4698580817812709	13.36692272129557	8.75240245779576	-5.807037059130082	-5.266997833898349	7.326726111095279	130.319374674236	0	0	8.395573357759737	-7.855628833457012	-6.000464121798903	8.443002348764217	120.9842240317717	0	0
0.1	-1.369740976389661	-0.1919631497806804	31.87608538273176	0	0.9399999999999999	0	7.80265078968146	-3.457967490107184	-2.697109131383761	8.949479399503108	0.1561978818607342	0	0	0	7.80265078968146	-3.457967490107184	-2.697109131383761	8.949479399503108	0.1561978818607342	0	0	0	-0.4681314889998845	-0.4592934262544674	13.22351208803805	8.763922168674663	-5.819328574705287	-5.294451093182676	7.322275566915093	130.3546543092689	0	0	8.416555193817786	-7.84685178050066	-6.024712275293031	8.496112309720429	121.0326011190265	0	0
0.12	-1.361231458601207	-0.1929055098122587	31.9970733464147	0	0.9399999999999999	0	8.893268655618426	-3.861698293518965	-3.05339305644379	9.973553956557723	0.1740713546672397	0	0	0	8.893268655618426	-3.861698293518965	-3.05339305644379	9.973553956557723	0.1740713546672397	0	0	0	-0.4722499158683656	-0.4532331147539195	13.10503304236047	8.750759359863311	-5.824497581628807	-5.341108800106493	7.320664904949976	130.3970098150866	0	0	8.426256704866795	-7.83266615318663	-6.037743223016188	8.508686920630046	121.0351380568019	0	0
0.14	-1.368647927328932	-0.2038980160839493	32.03246855757499	0	0.9399999999999999	0	9.203560102024975	-3.976021276986569	-3.154236148129546	10.26680790561036	0.179189601622684	0	0	0	9.203560102024975	-3.976021276986569	-3.154236148129546	10.26680790561036	0.179189601622684	0	0	0	-0.4887905328893359	-0.4537820822101465	13.05535343232747	8.763777665288176	-5.834999148033911	-5.334064845875842	7.467677058465498	130.2805205770403	0	0	8.435934109744901	-7.839292896644163	-6.026916269780616	8.682319795820154	120.9524148661748	0	0
